<svg width="681" height="676" viewBox="0 0 681 676" fill="none" xmlns="http://www.w3.org/2000/svg">
<path fill-rule="evenodd" clip-rule="evenodd" d="M362.686 2.40274C405.339 12.4927 423.379 68.3724 464.296 84.0887C505.363 99.863 556.032 71.0681 594.934 91.6109C632.558 111.479 656.284 152.982 670.62 193.042C684.715 232.429 679.906 275.745 675.721 317.368C671.901 355.366 651.282 389.333 647.072 427.29C642.069 472.391 673.397 524.28 648.557 562.255C624.386 599.208 567.978 595.572 526.715 611.291C490.908 624.932 456.281 639.313 419.362 649.567C380.371 660.396 341.42 680.299 301.47 673.85C261.507 667.399 229.309 638.304 197.166 613.698C166.572 590.278 144.479 558.781 116.521 532.27C84.3952 501.805 38.3761 483.871 18.5246 444.297C-1.28876 404.8 -5.18564 355.944 6.72501 313.391C18.608 270.936 61.6636 245.546 84.6796 207.945C105.86 173.342 110.807 129.941 137.641 99.5128C165.115 68.3574 202.433 47.6239 240.573 31.166C279.299 14.4553 321.641 -7.30653 362.686 2.40274Z" fill="#C1332A" fill-opacity="0.48"/>
</svg>
